STARTFONT 2.1
FONT -gbdfed-Unknown-Medium-R-Normal--12-120-72-72-P-80-FontSpecific-0
SIZE 12 72 72
FONTBOUNDINGBOX 15 20 0 0
STARTPROPERTIES 9
POINT_SIZE 120
PIXEL_SIZE 12
RESOLUTION_X 72
RESOLUTION_Y 72
FONT_ASCENT 9
FONT_DESCENT 3
AVERAGE_WIDTH 80
SPACING "P"
_GBDFED_INFO "Edited with gbdfed 1.6."
ENDPROPERTIES
CHARS 11
STARTCHAR 0
ENCODING 48
SWIDTH 1250 0
DWIDTH 15 0
BBX 12 20 3 0
BITMAP
FFF0
FFF0
C030
C030
C030
C030
C030
C030
C030
C030
C030
C030
C030
C030
C030
C030
C030
C030
FFF0
FFF0
ENDCHAR
STARTCHAR 1
ENCODING 49
SWIDTH 916 0
DWIDTH 11 0
BBX 6 20 5 0
BITMAP
FC
FC
0C
0C
0C
0C
0C
0C
0C
0C
0C
0C
0C
0C
0C
0C
0C
0C
0C
0C
ENDCHAR
STARTCHAR 2
ENCODING 50
SWIDTH 1166 0
DWIDTH 14 0
BBX 11 20 3 0
BITMAP
FFE0
FFE0
0060
0060
0060
0060
0060
0060
0060
0060
FFE0
FFE0
C000
C000
C000
C000
C000
C000
FFE0
FFE0
ENDCHAR
STARTCHAR 3
ENCODING 51
SWIDTH 1250 0
DWIDTH 15 0
BBX 12 20 3 0
BITMAP
FFF0
FFF0
0030
0030
0030
0030
0030
0030
FFF0
FFF0
0030
0030
0030
0030
0030
0030
0030
0030
FFF0
FFF0
ENDCHAR
STARTCHAR 4
ENCODING 52
SWIDTH 1250 0
DWIDTH 15 0
BBX 15 20 0 0
BITMAP
1806
1806
1806
1806
1806
1806
1806
1806
1806
1806
1FFE
1FFE
0006
0006
0006
0006
0006
0006
0006
0006
ENDCHAR
STARTCHAR 5
ENCODING 53
SWIDTH 1250 0
DWIDTH 15 0
BBX 15 20 0 0
BITMAP
1FFE
1FFE
1800
1800
1800
1800
1800
1800
1FFE
1FFE
0006
0006
0006
0006
0006
0006
0006
0006
1FFE
1FFE
ENDCHAR
STARTCHAR 6
ENCODING 54
SWIDTH 1250 0
DWIDTH 15 0
BBX 12 20 3 0
BITMAP
FFF0
FFF0
C000
C000
C000
C000
C000
C000
FFF0
FFF0
C030
C030
C030
C030
C030
C030
C030
C030
FFF0
FFF0
ENDCHAR
STARTCHAR 7
ENCODING 55
SWIDTH 1250 0
DWIDTH 15 0
BBX 12 20 3 0
BITMAP
FFF0
FFF0
0030
0030
0030
0030
0030
0030
0030
0030
0030
0030
0030
0030
0030
0030
0030
0030
0030
0030
ENDCHAR
STARTCHAR 8
ENCODING 56
SWIDTH 1250 0
DWIDTH 15 0
BBX 15 20 0 0
BITMAP
1FFE
1FFE
1806
1806
1806
1806
1806
1806
1FFE
1FFE
1806
1806
1806
1806
1806
1806
1806
1806
1FFE
1FFE
ENDCHAR
STARTCHAR 9
ENCODING 57
SWIDTH 1250 0
DWIDTH 15 0
BBX 12 20 3 0
BITMAP
FFF0
FFF0
C030
C030
C030
C030
C030
C030
FFF0
FFF0
0030
0030
0030
0030
0030
0030
0030
0030
FFF0
FFF0
ENDCHAR
STARTCHAR :
ENCODING 58
SWIDTH 666 0
DWIDTH 8 0
BBX 2 8 6 6
BITMAP
C0
C0
00
00
00
00
C0
C0
ENDCHAR
ENDFONT
